<?xml version="1.0" encoding="UTF-8"?>
<svg id="b" fill="#8B5132"  data-name="Layer 2" width="12px" xmlns="http://www.w3.org/2000/svg" viewBox="0 0 39.94 52.08">
  
  <g id="c" data-name="Layer 1">
    <path class="d" d="M39.36,41.98c-.84,3.1-3.09,6.98-5.87,8.91-1.81,1.26-3.86,1.68-5.89,.46-.88-.52-1.77-1.19-2.3-2.14-.38-.66-.58-1.74-.8-2.83-.24-1.14-.49-2.28-.96-2.99-.35-.53-.71-1.11-1.14-1.59-.68-.76-1.54-1.27-2.81-.99-1.48,.32-2.72,1.28-3.89,2.44-1.13,1.12-2.19,2.43-3.32,3.49-1.1,1.03-2.28,1.82-3.68,1.94-1.4,.13-3.02-.43-5.03-2.07-2.14-1.74-3.29-4.41-3.33-7.43-.03-2.39,.44-4.85,1.06-7.18,.12-.47,.26-.88,.4-1.24,1.09,1.23,2.55,2.45,4.29,3.95,1.7,1.44,3.19,3.31,5.17,4.31,.14,.07,.37,.17,.52,.22,.45,.16,.98,.25,1.46,.1,.27-.09,.4-.24,.44-.41,.04-.21-.07-.5-.32-.82-.79-.97-2.97-2.35-3.15-2.51-1.3-1.13-2.45-2.45-3.37-3.97-.68-1.12-1.35-1.96-1.98-2.46-.46-.36-.9-.55-1.31-.57-.53-.03-1.04,.22-1.48,.79-.13,.17-.26,.37-.38,.6-.8-1.01-1.34-2.06-1.57-3.32-.36-1.99,.08-4.49,1.47-8.16,.66-1.74,1.56-4.52,2.91-5.92,.02,.12,.02,.27,.03,.44,.01,1.29-.22,3.72-.21,4.1,.09,3.42,.85,6.53,3.25,8.68,.28,.25,.61,.57,.98,.75,.28,.14,.58,.21,.89,.14s.56-.26,.76-.52c.27-.34,.44-.81,.55-1.2,.41-1.52,.32-3.15-.09-4.59-.04-.14-.18-.38-.41-.69-.47-.67-1.33-1.71-2.17-2.88-1.17-1.64-2.32-3.51-2.31-4.93,0-.14,.11-.33,.27-.55,.28-.39,.74-.86,1.27-1.33,.94-.83,2.11-1.66,2.95-2.07,.32-.16,.58-.26,.76-.24,.11,0,.21,.08,.33,.19,.23,.22,.46,.59,.7,1.07,.08,.13,.15,.28,.22,.44-.26,.77-.44,1.52-.55,2.29-.4,2.72,.1,5.55,1.33,9.54,.11,.34,.49,1.7,1,2.35,.28,.37,.61,.51,.95,.35,.11-.06,.22-.16,.3-.31,.09-.17,.16-.42,.21-.73,.15-1.1-.04-3.06-.44-5.23-.54-2.93-1.44-6.23-2.35-8.29,.66-1.9,1.78-3.9,3.42-6.35,.28-.43,.69-1.34,1.12-2.08,.25-.41,.5-.78,.75-.94,.03,.04,.1,.1,.14,.17,.31,.46,.66,1.33,.75,1.47,.87,1.45,2.14,2.53,3.45,3.48,1.81,1.32,3.75,2.42,5.65,3.58,.91,.56,1.74,1.07,2.37,1.62,.61,.53,1.04,1.09,1.16,1.79,.18,.94-.21,2.1-1.37,3.71-1.28,1.75-3.06,3.06-4.48,4.67-.55,.63-2.3,2.68-2.85,4.27-.26,.77-.24,1.44,.2,1.85,.27,.25,.65,.35,1.07,.34,.55-.01,1.17-.2,1.59-.36,2.39-.89,3.76-3.08,4.78-5.58,1.01-2.44,1.7-5.16,2.77-7.19,.08-.15,.22-.43,.38-.61,.04-.04,.07-.07,.11-.1,.03-.02,.06-.04,.1-.03,.25,.03,.5,.29,.74,.6,.41,.53,.78,1.23,1,1.57,.99,1.48,2.12,3.13,2.5,4.99,.19,.9,.14,2.15-.08,3.53-.11,.05-.24,.13-.37,.23-.67,.52-1.58,1.66-1.75,1.84-1.05,1.13-2.11,2.23-3.25,3.24-1.05,.92-4.7,3.8-5.71,5.71-.31,.59-.37,1.1-.13,1.47,.15,.23,.41,.41,.83,.52,.54,.13,1.37,.15,2.56-.01,1.77-.25,3.36-1.06,4.54-2.64,1.19-1.61,2.57-5.11,3.32-8.37,.12-.5,.22-1,.31-1.48,.14,.25,.25,.63,.35,1.07,.31,1.39,.44,3.36,.55,4.17,.52,3.96,1.21,8.42,.12,12.46Z"/>
  </g>
</svg>