<?xml version="1.0" encoding="UTF-8"?>
<svg id="b" fill="white" data-name="Layer 2" xmlns="http://www.w3.org/2000/svg" viewBox="0 0 180.51 79.74">
  <g id="c" data-name="Layer 1">
    <path d="M30.99,2.79c.23-1.44,.19-2.16-.14-2.16h-9.61c-1.76,.19-3.34,.44-4.73,.77-1.39,.33-2.68,.72-3.87,1.18-1.18,.46-2.3,.98-3.34,1.53-1.04,.56-2.1,1.16-3.17,1.81h-.63V0H41.22V.63c-.51,0-1.1,.36-1.78,1.08-.67,.72-1.4,1.66-2.19,2.82l-2.09,3.06-1.53,2.23L12.6,40.59c-.74,1.3-1.3,2.43-1.67,3.38-.37,.95-.63,1.74-.77,2.37-.14,.63-.19,1.1-.14,1.43,.04,.33,.14,.49,.28,.49h11.63c1.72-.18,3.28-.44,4.7-.77,1.42-.32,2.72-.71,3.9-1.15s2.3-.94,3.34-1.5c1.04-.56,2.1-1.16,3.17-1.81h.56v5.85H0v-.63c.28,0,.66-.24,1.15-.73s1.05-1.15,1.71-1.98c.65-.84,1.38-1.81,2.19-2.92,.81-1.11,1.66-2.3,2.54-3.55L28.69,8.29c1.3-2.23,2.07-4.06,2.3-5.5Z"/>
    <path d="M131.42,41.99l5.43,6.89h-6.34L97.23,6.61v30.85c0,1.63,.09,3.1,.28,4.42,.18,1.32,.41,2.46,.66,3.41,.25,.95,.53,1.68,.84,2.19,.3,.51,.59,.77,.87,.77v.63h-5.92v-.63c.28,0,.57-.25,.87-.77,.3-.51,.58-1.24,.83-2.19,.25-.95,.48-2.09,.66-3.41,.18-1.32,.28-2.8,.28-4.42V5.85l-4.6-5.85h6.34l32.45,41.22V11.35c0-1.62-.09-3.1-.28-4.42-.19-1.32-.41-2.45-.66-3.38-.26-.93-.53-1.65-.83-2.16-.3-.51-.59-.77-.87-.77V0h5.92V.63c-.28,0-.57,.26-.87,.77-.3,.51-.58,1.23-.84,2.16-.26,.93-.48,2.05-.66,3.38-.19,1.32-.28,2.8-.28,4.42v30.64Z"/>
    <path d="M170.97,39.76c-.51-1.53-1.2-3.03-2.05-4.49-.86-1.46-1.87-2.77-3.03-3.93-1.16-1.16-2.46-2.12-3.9-2.89-1.44-.77-3.02-1.24-4.74-1.43-.65-.05-1.32-.03-2.02,.03-.7,.07-1.37,.22-2.02,.45-.65,.23-1.24,.56-1.78,.98-.53,.42-.92,.97-1.15,1.67l-3.41,10.17c-.93,2.65-1.38,4.63-1.36,5.95,.02,1.32,.5,1.98,1.43,1.98v.63h-5.92v-.63c.28,0,.6-.13,.97-.38,.37-.25,.78-.7,1.22-1.32,.44-.63,.92-1.46,1.43-2.51,.51-1.04,1.04-2.36,1.6-3.93L158.64,3.83l-1.32-3.83h5.29l13.3,38.78c.46,1.3,.92,2.53,1.36,3.69,.44,1.16,.86,2.17,1.25,3.03,.39,.86,.75,1.53,1.08,2.02,.32,.49,.63,.73,.91,.73v.63h-8.15v-.63c.23,0,.31-.65,.24-1.95-.07-1.3-.43-2.92-1.08-4.87l-.56-1.67Zm-19.92-11.7c.79-.74,1.76-1.22,2.92-1.43,1.16-.21,2.25-.27,3.27-.17,2.65,.23,4.97,1.11,6.96,2.65s3.67,3.37,5.01,5.5l-10.24-29.8-7.94,23.26Z"/>
    <path d="M62.94,79.6v-9.88h2.1v8.15h4.01v1.73h-6.1Z"/>
    <path d="M80.4,79.6l-.72-2.35h-3.6l-.72,2.35h-2.26l3.49-9.92h2.56l3.5,9.92h-2.26Zm-1.22-4.11l-.72-2.3c-.04-.15-.11-.35-.18-.59s-.15-.49-.22-.74-.13-.47-.18-.65c-.05,.18-.11,.41-.19,.69-.08,.27-.15,.53-.23,.77s-.12,.42-.16,.52l-.71,2.3h2.58Z"/>
    <path d="M93.32,76.86c0,.59-.14,1.09-.43,1.53-.28,.43-.7,.77-1.24,1-.54,.23-1.2,.35-1.98,.35-.34,0-.68-.02-1-.07-.33-.04-.64-.11-.94-.2s-.58-.2-.86-.33v-1.95c.47,.21,.96,.39,1.46,.56,.5,.17,1,.25,1.5,.25,.34,0,.62-.04,.83-.14,.21-.09,.36-.21,.46-.37,.09-.16,.14-.34,.14-.54,0-.25-.08-.46-.25-.64-.17-.18-.4-.34-.69-.49-.29-.15-.62-.32-.98-.49-.23-.11-.48-.24-.75-.4s-.53-.35-.77-.57-.44-.5-.6-.82-.23-.71-.23-1.16c0-.59,.13-1.09,.41-1.51s.66-.74,1.16-.96c.5-.22,1.1-.33,1.78-.33,.51,0,1,.06,1.47,.18,.47,.12,.95,.29,1.46,.52l-.68,1.63c-.46-.18-.86-.33-1.22-.43s-.73-.15-1.1-.15c-.26,0-.48,.04-.67,.12-.19,.08-.33,.2-.42,.35-.09,.15-.14,.33-.14,.52,0,.23,.07,.43,.21,.59,.14,.16,.34,.31,.62,.46,.28,.15,.62,.32,1.04,.52,.5,.24,.94,.49,1.29,.75,.36,.26,.63,.56,.83,.91,.19,.35,.29,.78,.29,1.3Z"/>
    <path d="M104.4,79.6h-5.69v-9.88h5.69v1.72h-3.6v2.17h3.35v1.72h-3.35v2.55h3.6v1.73Z"/>
    <path d="M112.93,69.72c.9,0,1.64,.11,2.22,.32,.58,.22,1.02,.54,1.3,.98,.28,.44,.43,.99,.43,1.66,0,.45-.09,.84-.26,1.18-.17,.34-.4,.62-.68,.86s-.58,.43-.91,.57l2.91,4.31h-2.32l-2.36-3.79h-1.12v3.79h-2.1v-9.88h2.88Zm-.15,1.72h-.64v2.67h.68c.69,0,1.19-.12,1.49-.35,.3-.23,.45-.57,.45-1.02s-.16-.8-.48-1-.82-.3-1.5-.3Z"/>
    <path class="d" d="M86.56,30.9c-.11-.82-.24-2.81-.56-4.21-.14-.64-.33-1.16-.56-1.42-.03-.04-.07-.07-.12-.09,.21-1.41,.26-2.68,.07-3.59-.4-1.92-1.55-3.62-2.57-5.15-.22-.33-.6-1.05-1.02-1.59-.32-.41-.68-.71-1.02-.76-.16-.02-.32,.04-.46,.16-.24,.2-.44,.6-.55,.8-1.08,2.04-1.78,4.78-2.79,7.23-.98,2.38-2.25,4.49-4.54,5.35-.38,.14-.94,.32-1.45,.33-.3,.01-.57-.05-.77-.23-.34-.31-.29-.82-.09-1.4,.53-1.54,2.23-3.52,2.77-4.13,1.43-1.62,3.22-2.94,4.5-4.71,1.26-1.73,1.64-3.01,1.45-4.03-.14-.78-.61-1.43-1.3-2.02-.65-.57-1.5-1.1-2.43-1.67-1.89-1.16-3.82-2.24-5.62-3.56-1.26-.92-2.5-1.95-3.34-3.35-.1-.17-.56-1.32-.91-1.69-.17-.18-.35-.21-.47-.15-.33,.16-.67,.61-.98,1.14-.43,.73-.83,1.63-1.12,2.05-1.54,2.32-2.63,4.24-3.31,6.05l-.04-.07c-.27-.52-.53-.92-.79-1.17-.2-.2-.41-.3-.59-.31-.23-.02-.57,.08-.98,.28-.86,.42-2.07,1.28-3.04,2.14-.65,.58-1.2,1.16-1.47,1.6-.14,.23-.21,.43-.21,.58-.02,1.49,1.16,3.47,2.39,5.18,.84,1.17,1.69,2.22,2.17,2.88,.18,.26,.31,.45,.35,.57,.38,1.36,.47,2.91,.08,4.36-.08,.28-.2,.62-.37,.9-.16,.25-.35,.46-.62,.52-.27,.06-.53-.04-.76-.19-.28-.17-.52-.41-.73-.6-2.32-2.07-3.03-5.08-3.12-8.38-.01-.44,.3-3.56,.18-4.58-.02-.22-.08-.36-.13-.42-.05-.05-.11-.08-.16-.09-.07-.01-.15,.01-.23,.08-1.5,1.36-2.5,4.38-3.21,6.25-1.43,3.77-1.85,6.34-1.48,8.39,.24,1.39,.86,2.53,1.78,3.65-.18,.42-.35,.91-.5,1.49-.63,2.37-1.1,4.87-1.07,7.29,.04,3.16,1.25,5.94,3.48,7.76,2.12,1.73,3.86,2.29,5.34,2.17,1.49-.13,2.75-.96,3.93-2.06,1.13-1.06,2.2-2.38,3.33-3.51,1.11-1.09,2.28-2.01,3.68-2.32,1.09-.24,1.82,.21,2.41,.87,.42,.46,.76,1.02,1.09,1.53,.45,.67,.68,1.76,.9,2.84,.24,1.14,.46,2.27,.85,2.96,.57,1.01,1.51,1.74,2.45,2.3,2.19,1.31,4.4,.87,6.35-.48,2.86-1.99,5.17-5.97,6.03-9.15,1.11-4.09,.42-8.61-.1-12.62Zm-2.06-4.9c.1-.09,.2-.18,.3-.25-.08,.44-.17,.89-.28,1.35-.74,3.19-2.08,6.63-3.25,8.21-1.11,1.48-2.6,2.24-4.25,2.47-.94,.12-1.64,.14-2.14,.07-.5-.07-.79-.22-.89-.47-.1-.26,0-.59,.2-.96,.99-1.88,4.58-4.69,5.61-5.6,1.15-1.01,2.23-2.13,3.28-3.26,.14-.15,.82-1,1.42-1.56Zm-35.2,5.08c.35-.44,.72-.65,1.13-.63,.34,.02,.69,.19,1.06,.48,.61,.48,1.24,1.28,1.89,2.35,.94,1.56,2.12,2.91,3.45,4.07,.18,.16,2.33,1.51,3.1,2.46,.1,.12,.18,.24,.22,.34,.01,.05,.03,.09,.01,.13-.03,.04-.08,.06-.15,.09-.39,.12-.82,.03-1.19-.1-.14-.04-.34-.13-.47-.2-1.96-.98-3.41-2.83-5.08-4.25-1.8-1.55-3.3-2.78-4.39-4.04,.14-.28,.28-.51,.42-.7Zm10.12-19.66c.83,2.04,1.64,5.05,2.13,7.74,.39,2.12,.59,4.03,.44,5.1-.03,.21-.07,.39-.13,.52-.04,.1-.09,.17-.15,.2-.08,.04-.15,.02-.22-.02-.07-.05-.14-.12-.21-.21-.48-.61-.82-1.9-.92-2.22-1.21-3.9-1.72-6.68-1.33-9.35,.09-.59,.22-1.17,.39-1.76Z"/>
  </g>
</svg>