<?xml version="1.0" encoding="UTF-8"?>
<svg id="b" data-name="Layer 2" xmlns="http://www.w3.org/2000/svg" viewBox="0 0 122.07 122.07">
  <defs>
    <style>
      .d {
        fill: #fff;
        fill-rule: evenodd;
      }

      .e {
        fill: #b28363;
      }
    </style>
  </defs>
  <g id="c" data-name="Layer 1">
    <g>
      <circle class="e" cx="61.03" cy="61.03" r="61.03"/>
      <path class="d" d="M89.23,65.95c-.16-1.17-.34-4.02-.8-6.03-.2-.92-.47-1.66-.8-2.03-.04-.06-.1-.1-.17-.13,.3-2.02,.37-3.84,.1-5.14-.57-2.75-2.22-5.18-3.68-7.37-.31-.47-.86-1.5-1.46-2.28-.46-.59-.97-1.02-1.46-1.09-.23-.03-.46,.06-.66,.23-.34,.29-.63,.86-.79,1.15-1.55,2.92-2.55,6.85-4,10.35-1.4,3.41-3.22,6.43-6.5,7.66-.54,.2-1.35,.46-2.08,.47-.43,.01-.82-.07-1.1-.33-.49-.44-.42-1.17-.13-2,.76-2.21,3.19-5.04,3.97-5.91,2.05-2.32,4.61-4.21,6.44-6.74,1.8-2.48,2.35-4.31,2.08-5.77-.2-1.12-.87-2.05-1.86-2.89-.93-.82-2.15-1.58-3.48-2.39-2.71-1.66-5.47-3.21-8.05-5.1-1.8-1.32-3.58-2.79-4.78-4.8-.14-.24-.8-1.89-1.3-2.42-.24-.26-.5-.3-.67-.21-.47,.23-.96,.87-1.4,1.63-.62,1.05-1.19,2.33-1.6,2.94-2.21,3.32-3.77,6.07-4.74,8.66l-.06-.1c-.39-.74-.76-1.32-1.13-1.68-.29-.29-.59-.43-.84-.44-.33-.03-.82,.11-1.4,.4-1.23,.6-2.96,1.83-4.35,3.06-.93,.83-1.72,1.66-2.11,2.29-.2,.33-.3,.62-.3,.83-.03,2.13,1.66,4.97,3.42,7.42,1.2,1.68,2.42,3.18,3.11,4.12,.26,.37,.44,.64,.5,.82,.54,1.95,.67,4.17,.11,6.24-.11,.4-.29,.89-.53,1.29-.23,.36-.5,.66-.89,.74-.39,.09-.76-.06-1.09-.27-.4-.24-.74-.59-1.05-.86-3.32-2.96-4.34-7.27-4.47-12-.01-.63,.43-5.1,.26-6.56-.03-.32-.11-.52-.19-.6-.07-.07-.16-.11-.23-.13-.1-.01-.21,.01-.33,.11-2.15,1.95-3.58,6.27-4.6,8.95-2.05,5.4-2.65,9.08-2.12,12.01,.34,1.99,1.23,3.62,2.55,5.23-.26,.6-.5,1.3-.72,2.13-.9,3.39-1.58,6.97-1.53,10.44,.06,4.53,1.79,8.51,4.98,11.11,3.04,2.48,5.53,3.28,7.65,3.11,2.13-.19,3.94-1.37,5.63-2.95,1.62-1.52,3.15-3.41,4.77-5.03,1.59-1.56,3.27-2.88,5.27-3.32,1.56-.34,2.61,.3,3.45,1.25,.6,.66,1.09,1.46,1.56,2.19,.64,.96,.97,2.52,1.29,4.07,.34,1.63,.66,3.25,1.22,4.24,.82,1.45,2.16,2.49,3.51,3.29,3.14,1.88,6.3,1.25,9.09-.69,4.1-2.85,7.4-8.55,8.64-13.1,1.59-5.86,.6-12.33-.14-18.07Zm-2.95-7.02c.14-.13,.29-.26,.43-.36-.11,.63-.24,1.27-.4,1.93-1.06,4.57-2.98,9.49-4.65,11.76-1.59,2.12-3.72,3.21-6.09,3.54-1.35,.17-2.35,.2-3.06,.1-.72-.1-1.13-.31-1.27-.67-.14-.37,0-.84,.29-1.37,1.42-2.69,6.56-6.72,8.03-8.02,1.65-1.45,3.19-3.05,4.7-4.67,.2-.21,1.17-1.43,2.03-2.23Zm-50.41,7.27c.5-.63,1.03-.93,1.62-.9,.49,.03,.99,.27,1.52,.69,.87,.69,1.78,1.83,2.71,3.37,1.35,2.23,3.04,4.17,4.94,5.83,.26,.23,3.34,2.16,4.44,3.52,.14,.17,.26,.34,.31,.49,.01,.07,.04,.13,.01,.19-.04,.06-.11,.09-.21,.13-.56,.17-1.17,.04-1.7-.14-.2-.06-.49-.19-.67-.29-2.81-1.4-4.88-4.05-7.27-6.09-2.58-2.22-4.73-3.98-6.29-5.79,.2-.4,.4-.73,.6-1Zm14.49-28.15c1.19,2.92,2.35,7.23,3.05,11.08,.56,3.04,.84,5.77,.63,7.3-.04,.3-.1,.56-.19,.74-.06,.14-.13,.24-.21,.29-.11,.06-.21,.03-.31-.03-.1-.07-.2-.17-.3-.3-.69-.87-1.17-2.72-1.32-3.18-1.73-5.58-2.46-9.57-1.9-13.39,.13-.84,.31-1.68,.56-2.52Z"/>
    </g>
  </g>
</svg>